<svg width="26" height="26" viewBox="0 0 26 26" fill="none" xmlns="http://www.w3.org/2000/svg">
<path d="M21.2871 16.5223C20.3724 15.6192 19.2304 15.6192 18.3214 16.5223C17.6281 17.2098 16.9347 17.8974 16.253 18.5966C16.0666 18.7888 15.9092 18.8296 15.682 18.7014C15.2334 18.4567 14.7556 18.2586 14.3244 17.9906C12.3143 16.7262 10.6304 15.1006 9.13881 13.2711C8.39885 12.3622 7.74045 11.3891 7.28015 10.2938C7.18693 10.0723 7.20441 9.92668 7.38503 9.74606C8.07839 9.07601 8.75426 8.38848 9.43597 7.70095C10.3857 6.7454 10.3857 5.6267 9.43014 4.66533C8.88827 4.11763 8.34641 3.58159 7.80454 3.0339C7.24519 2.47455 6.69167 1.90938 6.1265 1.35586C5.21173 0.464397 4.06973 0.464397 3.16079 1.36168C2.46161 2.04921 1.79156 2.75422 1.08072 3.4301C0.422322 4.05354 0.09021 4.81682 0.0202916 5.70827C-0.0904125 7.15908 0.265006 8.52832 0.766088 9.86259C1.79156 12.6244 3.35307 15.0773 5.24669 17.3264C7.80454 20.3678 10.8576 22.7742 14.4293 24.5105C16.0374 25.2912 17.7038 25.8914 19.5159 25.9904C20.7627 26.0603 21.8465 25.7457 22.7146 24.7727C23.3089 24.1085 23.979 23.5025 24.6083 22.8674C25.5405 21.9235 25.5463 20.7815 24.6199 19.8493C23.5129 18.7364 22.4 17.6294 21.2871 16.5223Z" fill="#6366F1"/>
</svg>
