<svg width="32" height="32" viewBox="0 0 32 32" fill="none" xmlns="http://www.w3.org/2000/svg">
<path d="M31.655 10.371C30.9875 8.67137 29.7635 6.21907 27.7229 4.18807C25.6894 2.16408 23.2631 0.975086 21.5858 0.333964C19.7443 -0.369846 17.6517 0.073777 16.2548 1.46408L11.3462 6.34969C9.89117 7.79787 9.4718 10.0262 10.3026 11.8947C10.5602 12.4742 10.8404 13.041 11.1398 13.5886L0.366398 24.3619C0.131962 24.5964 0.000274658 24.9143 0.000274658 25.2459V30.7458C0.000274658 31.4362 0.559897 31.9958 1.25027 31.9958H6.75025C7.44062 31.9958 8.00024 31.4362 8.00024 30.7458V28.4959L10.2502 28.4958C10.9406 28.4958 11.5002 27.9362 11.5002 27.2458V24.9959H13.7502C14.4406 24.9959 15.0002 24.4362 15.0002 23.7459C15.0002 23.0555 14.4406 22.4959 13.7502 22.4959H10.2502C9.55986 22.4959 9.00024 23.0555 9.00024 23.7459V25.9958L6.75025 25.9959C6.05988 25.9959 5.50025 26.5555 5.50025 27.2459V29.4958H2.50026V25.7636L13.5849 14.679C13.9922 14.2718 14.0685 13.6391 13.7698 13.1467C13.3366 12.4327 12.9387 11.6697 12.5871 10.8789C12.1747 9.95136 12.3848 8.84331 13.11 8.1215L18.0185 3.23595C18.7193 2.53852 19.7692 2.31608 20.6934 2.6692C22.1448 3.22395 24.2365 4.24507 25.9594 5.95994C27.6928 7.68518 28.7481 9.80786 29.3281 11.2847C29.69 12.2065 29.4701 13.2537 28.7678 13.9527L23.7999 18.8973C23.0765 19.6172 21.9967 19.8277 21.0489 19.4335C20.2673 19.1084 19.5102 18.7221 18.799 18.2856C18.2106 17.9245 17.4409 18.1087 17.0798 18.6971C16.7186 19.2855 16.9028 20.0552 17.4912 20.4163C18.3132 20.9208 19.1872 21.3668 20.0888 21.7418C21.9727 22.5254 24.1216 22.1043 25.5635 20.6692L30.5313 15.7247C31.9404 14.3222 32.3815 12.2208 31.655 10.371Z" fill="#A021F0"/>
</svg>
