<svg width="24" height="20" viewBox="0 0 24 20" fill="none" xmlns="http://www.w3.org/2000/svg">
<path d="M24.0002 0.433756C20.7721 -0.0887335 18.3745 0.528756 16.8072 2.28622C15.2399 4.04369 14.4563 6.63239 14.4563 10.0523V19.7421H24.0002V10.0523H19.0879C18.8306 8.34236 19.0645 6.95301 19.7897 5.88428C20.5382 4.81555 21.7546 4.35243 23.4388 4.49493L24.0002 0.433756ZM9.54404 0.433756C6.31597 -0.0887335 3.91831 0.528756 2.35106 2.28622C0.783809 4.04369 0.000183105 6.63239 0.000183105 10.0523V19.7421H9.54404V10.0523H4.63176C4.37445 8.34236 4.60837 6.95301 5.33352 5.88428C6.08205 4.81555 7.29843 4.35243 8.98264 4.49493L9.54404 0.433756Z" fill="white"/>
</svg>
